<svg id="f1c3b709-1f76-4131-836a-faedd5370727" data-name="‘ëîé_1" xmlns="http://www.w3.org/2000/svg" viewBox="0 0 4000 4006.3"><defs><style>.ada00ecd-d543-4880-a292-a7bc01e3b895,.b4c6b8e6-0eef-4562-875d-8c21b6c42cbc,.bc578f60-01d7-4446-b97e-f4e61db7e63e,.e28781b4-b9b7-4749-9bf7-71f2ba8a7be3,.f62e3e84-4f20-4f74-9c7e-e5e793aa5434{fill:#fff;}.ad506274-ebc8-474c-ac18-ac68897a1730,.ada00ecd-d543-4880-a292-a7bc01e3b895,.b198be21-6c6f-4fae-910c-18ce96086ea7,.bc578f60-01d7-4446-b97e-f4e61db7e63e,.e28781b4-b9b7-4749-9bf7-71f2ba8a7be3,.f550625c-2e87-4e79-95cc-f9daeb1462bf,.f62e3e84-4f20-4f74-9c7e-e5e793aa5434{stroke:#000;}.ad506274-ebc8-474c-ac18-ac68897a1730,.ada00ecd-d543-4880-a292-a7bc01e3b895,.bc578f60-01d7-4446-b97e-f4e61db7e63e,.f550625c-2e87-4e79-95cc-f9daeb1462bf,.f85f2409-5f7f-4be4-94ab-f2048c913e6e{stroke-miterlimit:10;}.ad506274-ebc8-474c-ac18-ac68897a1730,.b198be21-6c6f-4fae-910c-18ce96086ea7,.bc578f60-01d7-4446-b97e-f4e61db7e63e,.e28781b4-b9b7-4749-9bf7-71f2ba8a7be3,.f550625c-2e87-4e79-95cc-f9daeb1462bf,.f62e3e84-4f20-4f74-9c7e-e5e793aa5434{stroke-width:6px;}.a7fd574f-3f3d-40e6-aba6-8b7cd40cd4f8{fill:#ffba00;}.ad506274-ebc8-474c-ac18-ac68897a1730,.b198be21-6c6f-4fae-910c-18ce96086ea7,.f550625c-2e87-4e79-95cc-f9daeb1462bf,.f85f2409-5f7f-4be4-94ab-f2048c913e6e{fill:none;}.f85f2409-5f7f-4be4-94ab-f2048c913e6e{stroke:#fff;stroke-width:4px;}.b198be21-6c6f-4fae-910c-18ce96086ea7,.e28781b4-b9b7-4749-9bf7-71f2ba8a7be3,.f62e3e84-4f20-4f74-9c7e-e5e793aa5434{stroke-linejoin:round;}.ad506274-ebc8-474c-ac18-ac68897a1730{stroke-dasharray:15.61 23.42;}.b198be21-6c6f-4fae-910c-18ce96086ea7,.f62e3e84-4f20-4f74-9c7e-e5e793aa5434{stroke-linecap:round;}.ada00ecd-d543-4880-a292-a7bc01e3b895{stroke-width:3px;}</style></defs><polygon points="1978.1 3937 1977.9 3996 1450.8 3977.6 1455.9 3900.6 1978.1 3937"/><path class="b4c6b8e6-0eef-4562-875d-8c21b6c42cbc" d="M1683.2,3814.9l-22-266.2c7.4-11.1-201.7,32.3-201.7,32.3l34.7,233.1Z" transform="translate(0 4.5)"/><path class="bc578f60-01d7-4446-b97e-f4e61db7e63e" d="M1490.4,3585.3l7,225.2,181.8.7,6.4-249.6C1670,3560.4,1575.5,3567.7,1490.4,3585.3Z" transform="translate(0 4.5)"/><path class="b4c6b8e6-0eef-4562-875d-8c21b6c42cbc" d="M1975.3,3948.8s16-109.7-108.1-143.9-187.4-71-187.4-71-27.3,69.6-105.2,68.3c-88.3-1.5-69.2-46.6-92.9-40.1l10.6,140Z" transform="translate(0 4.5)"/><path class="bc578f60-01d7-4446-b97e-f4e61db7e63e" d="M1488.9,3747.5l-31.5,149.3,514.6,48a135.5,135.5,0,0,0-7.8-54.2c-14.9-40.7-47.9-68.4-98-82.2-106.8-29.4-169.4-61.2-184.6-69.3a128,128,0,0,1-22.5,32c-15.6,16.2-42.9,34.1-84.5,34.8C1497.8,3807,1492.3,3747.4,1488.9,3747.5Z" transform="translate(0 4.5)"/><path class="a7fd574f-3f3d-40e6-aba6-8b7cd40cd4f8" d="M1979.6,3947.7l-166.5-16.1,7.8-142.8q23.3,7.5,50.6,15C1995.6,3838,1979.6,3947.7,1979.6,3947.7Z" transform="translate(0 4.5)"/><path d="M1706.1,3736.9a9.3,9.3,0,0,0-3.3-2.1,9.8,9.8,0,0,0-12.7,5.7l-25.5,67.3a10,10,0,0,0,5.9,12.8,9.8,9.8,0,0,0,12.7-5.7l25.4-67.4A9.6,9.6,0,0,0,1706.1,3736.9Z" transform="translate(0 4.5)"/><path d="M1741.9,3750.5a10.8,10.8,0,0,0-3.3-2,9.9,9.9,0,0,0-12.8,5.6l-25.4,67.4a10,10,0,0,0,18.6,7.1l25.4-67.4A9.9,9.9,0,0,0,1741.9,3750.5Z" transform="translate(0 4.5)"/><path d="M1778.1,3764.3a10.8,10.8,0,0,0-3.3-2,9.9,9.9,0,0,0-12.8,5.6l-25.4,67.4a10,10,0,0,0,18.6,7.1l25.4-67.4A9.9,9.9,0,0,0,1778.1,3764.3Z" transform="translate(0 4.5)"/><path d="M1683,3748.5l2.8-9.3c1.4-4.6,34.3-112.4,80.9-128.2,11.8-3.9,23.4-1.9,34.5,6.1s15.6,16.9,14.6,27.5c-4.3,44.6-119,97.6-123.9,99.8ZM1806.6,3638c-1.2-5-4.7-9.6-10.6-13.8-8.8-6.3-17.4-7.9-26.4-4.8-17.2,5.8-35.7,28.5-53.3,65.9a456.4,456.4,0,0,0-18.8,46.8c36.4-17.9,106.5-58.3,109.4-88.3A18.7,18.7,0,0,0,1806.6,3638Z" transform="translate(0 4.5)"/><path d="M1683.3,3742.3l7.6-6.2c3.7-3.1,91.7-74.7,139.3-62.2,12,3.2,20.5,11.2,25.3,24s3.5,22.6-3.3,30.8c-28.7,34.7-153.8,15.9-159.1,15.1Zm165.4-36.5c-.4-1.6-.9-3.2-1.5-4.9-3.8-10-10.1-16.1-19.3-18.5-17.6-4.6-45.7,4.2-81.3,25.6a484.3,484.3,0,0,0-42,28.5c40.4,5.1,121.4,10.1,140.7-13.3C1849.2,3718.5,1850.3,3712.7,1848.7,3705.8Z" transform="translate(0 4.5)"/><path d="M1448.4,3687.1c10.8-557.7,10.5-746.9-417.3-1225.8,0,0,44.8-170.2,325.3-93.9,480.2,527.5,353.2,1305.5,353.2,1305.5C1648.8,3784.3,1448.4,3687.1,1448.4,3687.1Z" transform="translate(0 4.5)"/><polygon points="38.3 3179.6 0 3152.9 274.2 2771.9 317.6 2801.1 38.3 3179.6"/><path class="b4c6b8e6-0eef-4562-875d-8c21b6c42cbc" d="M295.1,3009.1l299.8,86.2c16.8-17.3,10.9-214.9,10.9-214.9l-228.3-40.5Z" transform="translate(0 4.5)"/><path d="M596,3099.3l-306-88,85.4-175.4,233.9,41.5v2.9c0,.5,1.5,50.1.9,101.1-1.3,104.6-10,113.5-12.8,116.4Zm-295.8-92.5,293.2,84.4c3.2-6.2,8.7-28.7,9.7-109.9.5-43.8-.5-86.6-.8-97.9l-222.8-39.5Z" transform="translate(0 4.5)"/><path class="b4c6b8e6-0eef-4562-875d-8c21b6c42cbc" d="M24.8,3166.5s85,67.7,176-18.6,153.7-120.6,153.7-120.6-45.2-57.3-5.2-121.4c45.4-72.9,74.1-34.6,80.4-57.5l-123.8-60.6Z" transform="translate(0 4.5)"/><path d="M93.5,3195a119.4,119.4,0,0,1-15.5-1.9c-33.1-6.3-54.5-23.1-55.4-23.8l-2.7-2.2,2-2.7,282.9-381.1,129.1,63.2-.7,2.9c-3,10.7-10.6,11.1-18.7,11.6-13.6.7-34.1,1.8-62.1,46.7-38.3,61.4,4.5,116.8,5,117.4l2.6,3.3-3.7,2c-.6.3-63.5,35.2-153,120.1C162.7,3189,123.2,3196.9,93.5,3195Zm-63.6-29.3a133.7,133.7,0,0,0,49.8,20.4c41.9,7.8,81.8-5.9,118.6-40.8,78.3-74.2,136.5-110.6,151-119.2a122.5,122.5,0,0,1-15.9-34.5c-5.9-21.1-8.5-53.4,12.8-87.6,30-48.1,53.8-49.4,67.9-50.2,6.7-.3,9.5-.6,11.1-3.6L307,2792.3Z" transform="translate(0 4.5)"/><path class="a7fd574f-3f3d-40e6-aba6-8b7cd40cd4f8" d="M24.8,3166.5,121.7,3036l117.1,77.3c-12,10.4-24.7,22-38,34.6C109.8,3234.2,24.8,3166.5,24.8,3166.5Z" transform="translate(0 4.5)"/><path d="M338.9,3047.6a9.1,9.1,0,0,0,3.4-1.7,9.5,9.5,0,0,0,1.6-13.4l-44.4-54.6a9.9,9.9,0,0,0-13.7-1.4,9.5,9.5,0,0,0-1.6,13.4l44.4,54.5A9.7,9.7,0,0,0,338.9,3047.6Z" transform="translate(0 4.5)"/><path d="M309.4,3070.6a9.1,9.1,0,0,0,3.4-1.7,9.3,9.3,0,0,0,1.6-13.4l-44.3-54.6a9.9,9.9,0,0,0-13.7-1.4,9.4,9.4,0,0,0-1.6,13.4l44.4,54.5A9.6,9.6,0,0,0,309.4,3070.6Z" transform="translate(0 4.5)"/><path d="M279.6,3093.9a9.5,9.5,0,0,0,3.5-1.7,9.4,9.4,0,0,0,1.5-13.4l-44.3-54.6a9.9,9.9,0,0,0-13.7-1.5,9.5,9.5,0,0,0-1.6,13.4l44.4,54.6A9.8,9.8,0,0,0,279.6,3093.9Z" transform="translate(0 4.5)"/><path d="M389.8,3191.3a27.3,27.3,0,0,1-10.3-2.8c-39.4-19.8-47.2-141.7-47.5-146.9l-.5-9.5,7.5,5.8c3.8,2.9,91.1,71,88.9,118.5-.6,12-6.6,21.7-17.9,28.9C403,3189.7,396.2,3191.7,389.8,3191.3ZM341.4,3051c3.5,39.1,15.5,116.5,42.1,129.8,6.5,3.3,13.7,2.4,21.8-2.8s13.5-12.8,13.9-22c.9-17.5-13.5-42.3-41.6-71.5A433.4,433.4,0,0,0,341.4,3051Z" transform="translate(0 4.5)"/><path d="M314,3205c-11.6-.7-19.9-5.4-24.8-13.9-21.6-38.1,40.4-143.8,43-148.3l4.9-8.2,3,9.1c1.5,4.4,35.9,109,7.4,147.3-7.2,9.6-17.7,14.4-31.1,14.1Zm20.8-149.2c-19.1,34.4-52.6,105.4-38,131.1,3.6,6.3,10,9.5,19.7,9.7s18.5-3.3,24-10.7c10.5-14.2,12.4-42.6,5.5-82.2A464.4,464.4,0,0,0,334.8,3055.8Z" transform="translate(0 4.5)"/><path d="M495.3,2841.6s399.1,118.4,464.7-7c37.9-72.4-83.3-495.5-59.6-565.8,65.8-194.6,240.4-120.9,348.7,32.3,0,0,67.6,527.6-29.5,724-140.3,284-746.3,59.2-746.3,59.2C442.8,2988,436.6,2901.5,495.3,2841.6Z" transform="translate(0 4.5)"/><line class="f85f2409-5f7f-4be4-94ab-f2048c913e6e" x1="1263.6" y1="2417.7" x2="1272.3" y2="2750.2"/><path class="e28781b4-b9b7-4749-9bf7-71f2ba8a7be3" d="M1756,1495.9s7.6-75.3,46.6-114.4c32.1-32.1,102.1-55.6,120.9-67,26.5-16,29.6,3.9,12.8,14.4s-45.3,26.2-37.8,29c4.1,1.6,69.1-34.8,91.6-50.9s32.1-1.4,14.6,13.5c-11.8,10-56.3,38.1-56.3,38.1s49.3-23.9,69.4-32.4c22.2-9.4,25.8,7,6.3,18.9s-65.1,36.1-65.1,36.1l62-23.9c23.7-9.1,23.9,9.4,1.4,19.2-19.1,8.3-64,28.3-64,28.3s34.1-11.3,53.7-17.3c17.5-5.4,24,10.5-8.2,23.4-34.5,13.8-82.6,36.2-132.7,56.3-29,11.5-45.6,104.8-45.6,104.8Z" transform="translate(0 4.5)"/><path class="bc578f60-01d7-4446-b97e-f4e61db7e63e" d="M1742.8,1447c23.4-30.8,68.5-7.5,122.2,37-6.9,296.2-470.7,469.3-640.6,444.5-77.2-11.3,3.5-81.2,44.6-167.7C1302.9,1689.3,1650.7,1773.4,1742.8,1447Z" transform="translate(0 4.5)"/><path class="bc578f60-01d7-4446-b97e-f4e61db7e63e" d="M889,2565.9c-62.2-194.9-20.8-467.1,22.7-766.9l430.4-72.2c-133.5,537.4,59.6,690.6,59.6,690.6C1285.3,2560.2,996.7,2639.4,889,2565.9Z" transform="translate(0 4.5)"/><path d="M745.1,2627.4l-497.1-24c-14.9-.7-36.5-25.3-35.8-39.8l26.9-329.3c.7-14.5,13.3-25.6,28.2-24.9l486.1,3.5c14.9.7,36.2,13.8,36.7,48l-16.7,341.5C772.7,2616.9,760,2628.1,745.1,2627.4Z" transform="translate(0 4.5)"/><path class="b4c6b8e6-0eef-4562-875d-8c21b6c42cbc" d="M738.2,2613.5l-502-24.2c-15-.7-26.6-13.2-25.9-27.9l17-346.8c.7-14.7,13.5-26,28.5-25.3l502,24.2c15,.7,26.6,13.2,25.9,27.9l-17,346.8C766,2602.9,753.2,2614.2,738.2,2613.5Z" transform="translate(0 4.5)"/><path d="M225.8,2590.2a29.8,29.8,0,0,1-18.7-29l17-346.7a29.2,29.2,0,0,1,9.9-20.7,30.7,30.7,0,0,1,22-7.6l501.9,24.2c16.8.8,29.8,14.8,29,31.2l-17,346.7A29.6,29.6,0,0,1,760,2609a31.4,31.4,0,0,1-22,7.7l-501.9-24.2A31.6,31.6,0,0,1,225.8,2590.2Zm539.9-371.7a21.8,21.8,0,0,0-8.1-1.8l-502-24.2a23.9,23.9,0,0,0-17.3,6.1,23,23,0,0,0-7.8,16.2l-17,346.7a23.7,23.7,0,0,0,22.9,24.6l501.9,24.2v0a24.4,24.4,0,0,0,17.4-6,23.2,23.2,0,0,0,7.8-16.3l17-346.7A23.5,23.5,0,0,0,765.7,2218.5Z" transform="translate(0 4.5)"/><path class="b4c6b8e6-0eef-4562-875d-8c21b6c42cbc" d="M510.1,2577.9c-.5,17.3,13.5,31.8,31.2,32.3L541,2493c.9-17.6-38.2-44.5-38.2-44.5l9.7-135.4-115.9,1.7-12.9,301.1c-.1,20,24.1,22.1,27.2-.9l-.6,18.2c.4,16.2,33.1,17.4,33.1-14.2v12.5c-.2,24.6,32.2,24.9,32.4.3v-15.4c-.2,28,31.5,33,31.7,5l1.6-92.3Z" transform="translate(0 4.5)"/><path d="M416.4,2646.2a14.4,14.4,0,0,1-9.3-12.9h0v-3a15,15,0,0,1-11.9,4.5c-7.2-.5-14.9-6.6-14.8-18.8l12.9-301.2a3.2,3.2,0,0,1,3.1-3.1l115.9-1.6a3,3,0,0,1,2.4.9,3.2,3.2,0,0,1,.8,2.4l-9.4,133.6c7.9,5.7,38.7,28.8,38,46.2l.3,117.1a3.2,3.2,0,0,1-.9,2.3,3.6,3.6,0,0,1-2.4.9,35.5,35.5,0,0,1-29.9-18l-.5,26c-.1,15.2-8.7,21.9-17.2,21.8a18.4,18.4,0,0,1-14.8-7.7c-1,6.8-4.5,12.3-9.9,15.4a19.1,19.1,0,0,1-18.8-.2,19.4,19.4,0,0,1-9-12.3l-1.7,2.1a21.2,21.2,0,0,1-15.5,7A18.2,18.2,0,0,1,416.4,2646.2Zm-2.9-13c.2,5.4,5.3,8.1,10.3,8,8.2-.1,16.4-7,16.4-22.2a3.2,3.2,0,0,1,3.2-3.2,3.2,3.2,0,0,1,3.2,3.2v12.5c0,6.3,2.3,11.2,6.7,13.8a12.7,12.7,0,0,0,12.4.1c4.4-2.5,6.8-7.3,6.9-13.7v-15.2h0a3.2,3.2,0,0,1,3.3-3.1,3.1,3.1,0,0,1,3.1,3.2h0v.2c0,12.6,7.4,20.2,14.5,20.3s10.7-6.1,10.8-15.5l1.6-92.3a3.1,3.1,0,0,1,3.2-3.1,3.2,3.2,0,0,1,3.2,3.1l1,48.7v.2c-.5,14.4,10.4,26.7,24.7,28.8l-.3-113.8h0c.3-6.2-6-15.5-17.7-26.4a182.4,182.4,0,0,0-19.1-15.4,3.5,3.5,0,0,1-1.4-2.8l9.4-132-109.3,1.6L387,2616.1c-.1,8,4.3,12,8.8,12.3s10.6-3.8,11.9-13.8a3.2,3.2,0,0,1,3.4-2.8,3.3,3.3,0,0,1,3,3.3Z" transform="translate(0 4.5)"/><path class="b4c6b8e6-0eef-4562-875d-8c21b6c42cbc" d="M556.5,2438.3l-187-5.8c5.3-448.5,223-576.1,478.6-627.4,112.3-22.5,163.7-37.2,174.7,76.9C1044.6,2107.3,539.6,1898.9,556.5,2438.3Z" transform="translate(0 4.5)"/><path class="f550625c-2e87-4e79-95cc-f9daeb1462bf" d="M880.4,2014.8c-141.2,41.4-334.5,86.4-323.9,423.5l-187-5.8c5.3-448.5,223-576.1,478.6-627.4,50.9-10.2,89.3-18.8,117.1-14.6" transform="translate(0 4.5)"/><path d="M1103.7,1848.2a115.9,115.9,0,0,1-23.5-17.5l3.1-3a107.3,107.3,0,0,0,22.5,16.8Zm27.4,10.7,1-4.1c10.1,2.2,19.4,2.2,27.6,0l1.1,4.1C1152,1861.3,1142,1861.3,1131.1,1858.9Zm-68.3-51.8c-.6-1.3-1.2-2.6-1.7-3.9a80.6,80.6,0,0,1-5.9-24.4l4.3-.3a77.9,77.9,0,0,0,5.5,23.1c.5,1.2,1.1,2.4,1.7,3.6Zm122.5,34.9-3.5-2.4a53.7,53.7,0,0,0,5.3-9.8,68.6,68.6,0,0,0,4.4-15.9l4.2.7a71.4,71.4,0,0,1-4.6,16.8A53.6,53.6,0,0,1,1185.3,1842Zm6.5-56a127,127,0,0,0-6.4-27.4l4-1.4a128.3,128.3,0,0,1,6.7,28.3Z" transform="translate(0 4.5)"/><path class="ad506274-ebc8-474c-ac18-ac68897a1730" d="M882.4,2017.2s168.9-111.4,84.4-222.8" transform="translate(0 4.5)"/><path d="M1162.4,1686.7c-13.1,35.5-42.6,54.6-75.2,42.8s-48.4-50.1-35.2-85.6,79.7-54.7,79.7-54.7S1175.6,1651.1,1162.4,1686.7Z" transform="translate(0 4.5)"/><path class="b4c6b8e6-0eef-4562-875d-8c21b6c42cbc" d="M1093.2,1769.8l3.9-64.3,64.5,35.9-.4,26.6s19.7,43.5-9,53.7S1096.6,1792.4,1093.2,1769.8Z" transform="translate(0 4.5)"/><path d="M1129.9,1823.3a36.6,36.6,0,0,1-5.6-2.8c-17.8-10.5-31.3-34.3-33.7-50.4v-.5l4.2-68.5,69.6,38.8-.4,27.5c1.7,4,11,27.1,4,43.3a24.5,24.5,0,0,1-14.8,13.5A32.1,32.1,0,0,1,1129.9,1823.3Zm-34-53.7c2.4,15,15.4,37,31.2,46.4,8.2,4.9,16.4,6,24.2,3.2a19,19,0,0,0,11.7-10.6c6.5-15.3-4.1-39.3-4.2-39.6l-.3-.5.4-25.5-59.4-33.1Z" transform="translate(0 4.5)"/><path class="b4c6b8e6-0eef-4562-875d-8c21b6c42cbc" d="M1104.5,1642.5c5.6,21.9-6.8,38.3-28.2,46.3-6.4,2.9-8.9,12.4-5.5,21.8s9.1,13.5,15.2,13.9c13.2,23.3,37.3,36,58.1,28.9,24.1-8.2,34.8-39.7,23.8-70.3S1128.6,1634.3,1104.5,1642.5Z" transform="translate(0 4.5)"/><path d="M1114.7,1754.5c-11.7-4.8-22.6-14.3-30.3-27.5-6.9-1.2-13.2-7.2-16.2-15.5-3.8-10.8-.8-21.6,7-25.1h.2c21.8-8.1,31.4-23.9,26.5-43.1l-.7-2.4,2.4-.8c25.4-8.7,55.4,10.3,66.9,42.2,6.4,17.9,5.9,36.7-1.4,51.6-5.3,10.9-13.6,18.5-24.1,22.1A42.9,42.9,0,0,1,1114.7,1754.5Zm-27.1-32.5.7,1.2c12.8,22.5,35.9,34.1,54.9,27.7,9.1-3.1,16.4-9.8,21.1-19.4,6.6-13.6,7-31,1.1-47.5-10.1-28.3-35.6-45.5-57.8-39.7,4.2,20.8-6.9,38.2-30.2,46.9-5.2,2.4-7,10.5-4.1,18.5s7.7,11.9,12.9,12.2Z" transform="translate(0 4.5)"/><path d="M1171.1,1682.1c-1.4-3-5.3-10.6-6.7-13.5.8,10.1,1.4,25.6-1,33.1s-9.4,4.1-16.6,6.3c-10,3.1-18.7,12.1-27.6,9.2-20.9-6.9-36.2-31.5-36.2-31.5s-4.5.2-6.7,3.1c0,0,7,11.2,9.1,23.6.5,3.1,1,9.2.2,12.1h.4c11.8,32.2,54.4,50.6,75.2,43.5C1185.3,1759.8,1184.3,1710.7,1171.1,1682.1Z" transform="translate(0 4.5)"/><path class="b4c6b8e6-0eef-4562-875d-8c21b6c42cbc" d="M1127.7,1724.1s11.8.9,21.4-2.8,9.8-9.4,9.8-9.4,1.5,14.4-8,18.7S1127.7,1724.1,1127.7,1724.1Z" transform="translate(0 4.5)"/><path d="M1150.7,1684.9a17.2,17.2,0,0,1-6.4-4.7,18.3,18.3,0,0,1-4.3-12.8c.5-9.8,8.5-17.4,17.9-16.9a16.4,16.4,0,0,1,11.7,5.8,18.6,18.6,0,0,1,4.3,12.8h0a18.3,18.3,0,0,1-5.6,12.3,16.6,16.6,0,0,1-12.3,4.7A16.3,16.3,0,0,1,1150.7,1684.9Zm10.9-29.4a13.7,13.7,0,0,0-4-.9c-7-.3-13,5.5-13.4,13a14.4,14.4,0,0,0,3.3,10,12.2,12.2,0,0,0,8.8,4.3,11.8,11.8,0,0,0,9.1-3.5,13.8,13.8,0,0,0,4.3-9.5h0a14,14,0,0,0-3.3-9.9A12.4,12.4,0,0,0,1161.6,1655.5Z" transform="translate(0 4.5)"/><path d="M1110.4,1703.8c-7.9-3.2-13.2-11.5-12.8-20.9a22,22,0,0,1,6.6-14.6,19.6,19.6,0,0,1,14.7-5.6,19.8,19.8,0,0,1,14,7,22.1,22.1,0,0,1-1.5,29.9,19.5,19.5,0,0,1-21,4.2Zm13-35.1a15.3,15.3,0,0,0-4.7-1.1,14.7,14.7,0,0,0-11,4.2,17.2,17.2,0,0,0-5.1,11.4c-.4,9,6,16.6,14.4,17.1a14.6,14.6,0,0,0,10.9-4.2,16.8,16.8,0,0,0,5.1-11.4h0a16.1,16.1,0,0,0-3.9-11.8A15.4,15.4,0,0,0,1123.4,1668.7Z" transform="translate(0 4.5)"/><polygon points="1134.3 1681.7 1132.9 1677.8 1141.7 1674.5 1143.2 1678.4 1134.3 1681.7"/><polygon points="1076.5 1695.4 1076.1 1691.2 1099.7 1689 1100.1 1693.1 1076.5 1695.4"/><path class="bc578f60-01d7-4446-b97e-f4e61db7e63e" d="M2606.3,3876.6l-37.8-388.2c15.9-18.2,177.3,0,177.3,0l33.6,323.4Z" transform="translate(0 4.5)"/><polygon points="2371.2 3964.6 2384.4 4006.3 2824.9 3908.5 2806.9 3837.9 2371.2 3964.6"/><path class="a7fd574f-3f3d-40e6-aba6-8b7cd40cd4f8" d="M2375.2,3974.5s-37-95.1,66.6-150,152.4-100.4,152.4-100.4,38.8,57,108,40.5c78.5-18.6,52.1-55.3,74.5-54.1l35,125.3Z" transform="translate(0 4.5)"/><path d="M2375.2,3974.5l145.1-47.1-36.5-126.3q-19.2,11.3-42,23.4C2338.2,3879.4,2375.2,3974.5,2375.2,3974.5Z" transform="translate(0 4.5)"/><path d="M2571.4,3732a7.5,7.5,0,0,1,2.5-2.5,8.9,8.9,0,0,1,12.5,2.5l36.7,55.4a9.1,9.1,0,0,1-2.6,12.5,8.9,8.9,0,0,1-12.5-2.6l-36.7-55.3A9.1,9.1,0,0,1,2571.4,3732Z" transform="translate(0 4.5)"/><path d="M2542.3,3751.2a8.5,8.5,0,0,1,2.5-2.5,9.1,9.1,0,0,1,12.6,2.6l36.6,55.3a9,9,0,0,1-2.6,12.5,8.9,8.9,0,0,1-12.5-2.5l-36.6-55.4A8.9,8.9,0,0,1,2542.3,3751.2Z" transform="translate(0 4.5)"/><path d="M2512.9,3770.7a8.5,8.5,0,0,1,2.5-2.5,9,9,0,0,1,12.5,2.5l36.6,55.4a9,9,0,0,1-15,10l-36.7-55.4A9.1,9.1,0,0,1,2512.9,3770.7Z" transform="translate(0 4.5)"/><path d="M2782.5,3498.2s-17.3-265.4-3.2-379.4c21.3-171.3,139.7-294.9,239.3-381.4,48.3-41.8,48.4-76.6,117.3-123.4,211.2-143.4,112.4-179.2,112.4-179.2s36.8-163-249.1-102.3c-139.4,147.2-558.2,367.4-449.1,1191.8C2550.1,3524.3,2609.5,3641.3,2782.5,3498.2Z" transform="translate(0 4.5)"/><polygon points="3970.2 3037 4000 3008.2 3744.7 2675.2 3677.5 2737.6 3970.2 3037"/><path class="bc578f60-01d7-4446-b97e-f4e61db7e63e" d="M3724.9,2919.2,3475.5,3036c-16.9-13.1-34.5-177.6-34.5-177.6l190.1-78.8Z" transform="translate(0 4.5)"/><path class="a7fd574f-3f3d-40e6-aba6-8b7cd40cd4f8" d="M3980.8,3023.1s-65.1,71.6-155.5,7-149.6-86.8-149.6-86.8,31.8-57-11.4-108.7c-49.1-58.7-69-20.8-77.5-40.4l99.8-70.5Z" transform="translate(0 4.5)"/><path d="M3980.8,3023.1l-101.4-103.2-91.8,84.5c11.8,7.7,24.4,16.2,37.7,25.7C3915.7,3094.7,3980.8,3023.1,3980.8,3023.1Z" transform="translate(0 4.5)"/><path d="M3691.9,2959.4a9.6,9.6,0,0,1-3.1-1.1,8.5,8.5,0,0,1-3.2-11.7l31.4-54.5a8.8,8.8,0,0,1,11.8-3.2,8.5,8.5,0,0,1,3.1,11.7l-31.4,54.5A8.7,8.7,0,0,1,3691.9,2959.4Z" transform="translate(0 4.5)"/><path d="M3720.6,2975.9a9.4,9.4,0,0,1-3.2-1.1,8.6,8.6,0,0,1-3.2-11.7l31.5-54.5a8.6,8.6,0,0,1,11.7-3.2,8.8,8.8,0,0,1,3.2,11.8l-31.5,54.5A8.8,8.8,0,0,1,3720.6,2975.9Z" transform="translate(0 4.5)"/><path d="M3749.6,2992.6a7.6,7.6,0,0,1-3.2-1.1,8.6,8.6,0,0,1-3.2-11.7l31.5-54.5a8.6,8.6,0,0,1,14.8,8.6l-31.4,54.5A8.6,8.6,0,0,1,3749.6,2992.6Z" transform="translate(0 4.5)"/><path d="M3492.1,2826l-211.7,73.2c-71.1,24.5-77.5-20.2-55.1-114.2,19.3-81.3,120.7-304.5,109.9-379.6-29.7-208.3-226.8-144.6-361.2-9.1,0,0-25.2,357.7-16.1,535.5s130.9,225.4,224.1,215.7,354.1-116.1,354.1-116.1S3600.7,2961,3492.1,2826Z" transform="translate(0 4.5)"/><path class="f85f2409-5f7f-4be4-94ab-f2048c913e6e" d="M2974,2396.3s-14.1,227.3-17.1,400" transform="translate(0 4.5)"/><path class="e28781b4-b9b7-4749-9bf7-71f2ba8a7be3" d="M2425.3,1509.3s-5.8-56.5-36.1-85.8c-24.8-24-78.9-41.6-93.5-50.2-20.5-12-22.9,2.9-9.9,10.8s35.1,19.7,29.3,21.8c-3.2,1.1-53.5-26.2-70.9-38.2s-24.8-1.1-11.3,10.1c9.2,7.5,43.5,28.6,43.5,28.6s-38.1-18-53.6-24.3c-17.2-7.1-20,5.2-4.9,14.1s50.3,27.1,50.3,27.1l-47.9-17.9c-18.4-6.9-18.5,7-1.1,14.4,14.8,6.2,49.5,21.2,49.5,21.2s-26.4-8.5-41.5-13c-13.5-4-18.6,7.9,6.3,17.6,26.7,10.3,63.9,27.1,102.7,42.2,22.4,8.6,35.3,78.5,35.3,78.5Z" transform="translate(0 4.5)"/><path class="bc578f60-01d7-4446-b97e-f4e61db7e63e" d="M2429.6,1490.1c-75.4,9.4-94.3,70.7-95.3,97.1,110.9,526.8,704.8,347,565,180.5C2852.3,1711.7,2573.3,1946.6,2429.6,1490.1Z" transform="translate(0 4.5)"/><path class="bc578f60-01d7-4446-b97e-f4e61db7e63e" d="M3340,2417.4c-16.1-337.9-172.2-474.5-229.9-677.6-100.3-6.5-195.2-.6-281.6,24.7-63.1,48.2-107.2,202.4-82.7,237.8,30.9,44.5,70.9,60.1,84.5,91.6,127.3,295,37.7,359.4,37.7,359.4C3201.1,2561.1,3254.9,2474.5,3340,2417.4Z" transform="translate(0 4.5)"/><path d="M3420.2,2439.5l407.5-107.2c12.2-3.3,25.7-28,22.5-40.3l-81.9-275.8a23,23,0,0,0-28-16.3l-402,87.9c-12.2,3.2-27.6,18.1-21.8,47.3l75.8,288.1A22.9,22.9,0,0,0,3420.2,2439.5Z" transform="translate(0 4.5)"/><path class="bc578f60-01d7-4446-b97e-f4e61db7e63e" d="M3423.6,2423.7l407.5-107.2a23,23,0,0,0,16.3-28l-75.8-288.1a22.9,22.9,0,0,0-27.9-16.3l-407.5,107.2a23,23,0,0,0-16.3,28l75.8,288.1A22.9,22.9,0,0,0,3423.6,2423.7Z" transform="translate(0 4.5)"/><path class="f62e3e84-4f20-4f74-9c7e-e5e793aa5434" d="M3700.5,2377.1l-6.7-30.2a15.7,15.7,0,0,0-.3-6.8l-6.5-24.2-1.5-6.6h-.3l-48.9-182.9-95.4,18.7,32,111.9s-27.2,29.4-23.3,44l20.6,98.5A27,27,0,0,0,3590,2367l-9.6-39.5,9.6,30.7,12.3,55.6c4.6,20.9,26.2,18.5,27.1,1l.4,1.7c4.5,20.7,31,14.8,26.5-5.8l-7-31.7,1.4-.4,4.4,19.7c5.4,24.5,31.9,18.7,26.5-5.9l-.5-2.2C3688.9,2399.4,3704,2393.1,3700.5,2377.1Z" transform="translate(0 4.5)"/><path class="b4c6b8e6-0eef-4562-875d-8c21b6c42cbc" d="M3528.6,2242.7c118.7,70.8,138.5-65.5,138.5-65.5-84.4-375.6-282.4-420.1-501-433.7-76.2-4.7-141.6-10.8-130.3,86.9C3058.1,2023.4,3442.3,1750,3528.6,2242.7Z" transform="translate(0 4.5)"/><path class="f550625c-2e87-4e79-95cc-f9daeb1462bf" d="M3173.4,1915.3c126.1,10.6,300.5,15.1,355.2,327.4,118.7,70.8,138.5-65.5,138.5-65.5-84.4-375.6-290.5-428.3-560.1-437.3" transform="translate(0 4.5)"/><ellipse cx="2985.1" cy="1555.7" rx="86.4" ry="67.2" transform="translate(272.9 3553.9) rotate(-63.8)"/><path class="a7fd574f-3f3d-40e6-aba6-8b7cd40cd4f8" d="M2901.5,1619.2c.6,23,16.8,41.3,36.2,40.8s34.6-19.6,34-42.6-16.8-41.3-36.2-40.8S2900.9,1596.2,2901.5,1619.2Z" transform="translate(0 4.5)"/><circle cx="2911.7" cy="1647" r="51.5" transform="translate(-311.8 2545.8) rotate(-45)"/><path class="bc578f60-01d7-4446-b97e-f4e61db7e63e" d="M2942.2,1750l-3.9-68.1-53.5,30.9,1.6,33.9s-63.3,86.5-38.2,96.3S2938.7,1770.3,2942.2,1750Z" transform="translate(0 4.5)"/><path class="bc578f60-01d7-4446-b97e-f4e61db7e63e" d="M2897.9,1619.3c16.6-.3,31.1,12.2,37.9,30.5,6.2.5,11.3,7.7,11.4,16.7s-3.3,14.2-8.2,16.4c-3.5,23.8-19.4,41.8-38.9,42.2-22.5.5-41.2-22.8-41.8-52S2875.4,1619.8,2897.9,1619.3Z" transform="translate(0 4.5)"/><path d="M2892,1634.1a25.8,25.8,0,1,0,25.1-26.4A25.7,25.7,0,0,0,2892,1634.1Z" transform="translate(0 4.5)"/><path d="M3177,1918.3c-8.3-2-16.7-4.2-25-6.6l1.3-3c8.3,2.4,16.7,4.6,24.9,6.6Zm-49.6-14.2c-8.4-2.8-16.5-5.8-24.1-8.8l1.7-2.8c7.5,3,15.5,5.9,23.9,8.7Zm-47.3-18.9c-8-3.9-15.4-8-21.9-12l2.3-2.6a223,223,0,0,0,21.6,11.9Zm-41.4-26.8a78,78,0,0,1-8.4-9.1,79.1,79.1,0,0,1-6.3-9.6l3.3-1.5a63.7,63.7,0,0,0,6,9.3,80.5,80.5,0,0,0,8.1,8.7Zm-17.6-41.6-3.6.5a63,63,0,0,1,3.1-23.6l3.5.6A59.6,59.6,0,0,0,3021.1,1816.8Zm13.5-44-3-1.4a118.2,118.2,0,0,1,16.4-19.9l2.5,2.1A106.8,106.8,0,0,0,3034.6,1772.8Z" transform="translate(0 4.5)"/><line class="b198be21-6c6f-4fae-910c-18ce96086ea7" x1="3623.9" y1="2385.5" x2="3629.9" y2="2423.7"/><line class="b198be21-6c6f-4fae-910c-18ce96086ea7" x1="3672.3" y1="2366" x2="3682.4" y2="2397.5"/><path class="a7fd574f-3f3d-40e6-aba6-8b7cd40cd4f8" d="M2435.6,16.6l-44.5,576.8c-7.6,99.2-62,184.3-140.6,234.5-50.8,32.4-80.7,89-79.8,149.2l.5,26.8c2.4,152.8,98.3,151.8,99.2,209.3s1.5,94.9,1.5,94.9l-347.7,5.5s-.6-40-1.5-94.8,95.1-46.3,92.4-212.4l-.4-26.8A173.4,173.4,0,0,0,1930.2,833a305.8,305.8,0,0,1-148.1-229.8L1719.2,28.1Z" transform="translate(0 4.5)"/><path class="a7fd574f-3f3d-40e6-aba6-8b7cd40cd4f8" d="M2413.7,771.1c10.9-.2,21.8-4.2,31.5-11.9s16.9-21.5,17.1-37.1c.2-13.6-5.6-25.7-16.7-35a19,19,0,0,0-24.3,29.1c3,2.4,3.1,4.1,3.1,4.9.2,3.4-2.1,7.4-3.2,8.8-5.5,4.2-9.2,3.6-11.9,2.6-5.4-2-9-7.5-9.3-9.4-.9-6.6-.9-25,16.6-50.8s48.4-51.7,88.5-74.2c100.6-56.4,167.6-110.1,210.7-169.2,51.3-70.1,69.6-149.1,56.1-241.2-8-55-43.2-106.6-94-138.3a202.3,202.3,0,0,0-77.7-28.7,194.6,194.6,0,0,0-88.2,7.6c-59.9,19.3-93.1,58.8-86.6,103,1.9,12.9,9.8,24.5,21.6,31.7a55.9,55.9,0,0,0,37.6,7.3c17.7-2.6,30.2-18.1,27.8-34.6a19,19,0,0,0-37-2.6c-6.7-.2-11.9-3.6-12.5-7.3-2.8-19.3,11.7-45.6,60.7-61.4,45.3-14.6,93-8.5,134.2,17.2a175.1,175.1,0,0,1,51.4,48.9c13.3,19.5,22.1,41.1,25.2,62.7,6.3,42.6,5,81-3.8,117.3-8.3,34.2-23.2,65.7-45.4,96.1-39.8,54.5-102.9,104.8-198.6,158.4-45.9,25.7-80,54.7-101.3,86-17.7,26.1-25.9,53.4-22.9,76.9,2,16.3,15.3,32.6,32.3,39.6A48.6,48.6,0,0,0,2413.7,771.1Zm7.3-41Z" transform="translate(0 4.5)"/><path class="a7fd574f-3f3d-40e6-aba6-8b7cd40cd4f8" d="M1768,781.4c-11,.2-22-3.4-31.9-10.8s-17.6-21-18.3-36.6c-.7-13.6,4.7-25.9,15.5-35.5a19,19,0,1,1,25.3,28.3c-2.9,2.6-3,4.2-3,5-.1,3.4,2.3,7.4,3.5,8.7,5.7,4,9.4,3.3,12,2.3,5.3-2.3,8.7-7.8,9-9.7.6-6.7.1-25-18.3-50.3s-49.9-50.1-90.8-71.3c-102.4-53.1-171-104.7-216-162.3-53.5-68.5-74.3-146.8-63.8-239.4,6.3-55.1,39.7-107.9,89.5-141.2a201,201,0,0,1,76.8-31.1,192.9,192.9,0,0,1,88.3,4.7c60.5,17.4,94.9,55.7,89.9,100.1a45.3,45.3,0,0,1-20.6,32.5,56.4,56.4,0,0,1-37.3,8.5c-17.8-2-30.7-17.2-28.9-33.8a19,19,0,0,1,36.9-3.8c6.7-.3,11.8-3.9,12.2-7.6,2.2-19.4-13.1-45.2-62.6-59.5-45.8-13.1-93.2-5.5-133.6,21.5a176.1,176.1,0,0,0-49.7,50.6c-12.8,19.9-20.8,41.8-23.3,63.4-4.8,42.9-2.4,81.2,7.6,117.2,9.4,33.9,25.3,64.9,48.5,94.6,41.5,53.2,106.2,101.4,203.6,151.9,46.7,24.3,81.7,52.1,104,82.7,18.5,25.5,27.5,52.5,25.4,76.1-1.6,16.4-14.3,33.1-31.1,40.6A48,48,0,0,1,1768,781.4Zm-8.7-40.7Z" transform="translate(0 4.5)"/><path class="b4c6b8e6-0eef-4562-875d-8c21b6c42cbc" d="M2093.2,1005.1l-.4-26.7c-1-60.2,13.7-116.6,39-148.6,39.2-49.5,65.9-134.3,69-233.3l17.8-576.4,97.4-1.6-27.7,576.6c-4.7,99.1-41.6,184-95.4,233.7-34.7,32.1-55,88.7-54,148.8l.4,26.8c2.4,152.8,68.3,152.2,69.2,209.8s1.5,94.8,1.5,94.8l-63.6,1.1s-.6-37.3-1.5-94.9S2095.7,1158,2093.2,1005.1Z" transform="translate(0 4.5)"/><path class="b4c6b8e6-0eef-4562-875d-8c21b6c42cbc" d="M1857.8,25.9l36.3,575.5c5.9,93.3,32.4,173.2,69.6,222.5-50.5-49.1-86.2-128.8-93.7-222.1L1823.9,26.4Z" transform="translate(0 4.5)"/><path class="a7fd574f-3f3d-40e6-aba6-8b7cd40cd4f8" d="M1893.7,1252.9h410.4a0,0,0,0,1,0,0v44.3a13.6,13.6,0,0,1-13.6,13.6H1907.4a13.6,13.6,0,0,1-13.6-13.6v-44.3A0,0,0,0,1,1893.7,1252.9Z" transform="translate(4218.2 2534.4) rotate(179.1)"/><path class="b4c6b8e6-0eef-4562-875d-8c21b6c42cbc" d="M2144.6,1252.2l61.7-1a39.5,39.5,0,0,1,40.2,38.9l.3,18.4-61.6.9-.3-18.3A39.6,39.6,0,0,0,2144.6,1252.2Z" transform="translate(0 4.5)"/><rect class="a7fd574f-3f3d-40e6-aba6-8b7cd40cd4f8" x="1859.8" y="1291.6" width="477.6" height="125.85" transform="translate(4218.7 2679.7) rotate(179.1)"/><rect class="a7fd574f-3f3d-40e6-aba6-8b7cd40cd4f8" x="1974" y="900.6" width="236.2" height="74.94" rx="8.8" transform="translate(4198.9 1846.9) rotate(179.1)"/><path class="b4c6b8e6-0eef-4562-875d-8c21b6c42cbc" d="M2132.3,942.9l-.2-11a32,32,0,0,0-32.5-31.4l40.3-.7a32.1,32.1,0,0,1,32.5,31.5l.2,10.9a32,32,0,0,1-31.5,32.5l-40.3.7A32.2,32.2,0,0,0,2132.3,942.9Z" transform="translate(0 4.5)"/><rect class="b4c6b8e6-0eef-4562-875d-8c21b6c42cbc" x="2216.2" y="1289.2" width="62.6" height="125.85" transform="translate(4516.4 2672.5) rotate(179.1)"/><path class="ada00ecd-d543-4880-a292-a7bc01e3b895" d="M1226.6,242c-69.5-35.4-108.3-115.5-92.9-197.7l83.4-46.1c-7.1,77.6,40.1,153.1,117.9,183.9Q1280.7,212,1226.6,242Z" transform="translate(0 4.5)"/><path d="M1207,150.9c-22.9,12.6-48.9,11.6-55.2-4s8.1-38.5,29.1-50.2,42.5-8.3,50.7,6.2S1229.9,138.2,1207,150.9Z" transform="translate(0 4.5)"/><path d="M1226.6,242a173.2,173.2,0,0,1-41.4-29.6L1288,155.5a191.3,191.3,0,0,0,47,26.6Q1280.7,212,1226.6,242Z" transform="translate(0 4.5)"/><path d="M1132.6,50.2c.3-2,.7-3.9,1.1-5.9l83.4-46.1c-.2,1.8-.3,3.7-.4,5.6Z" transform="translate(0 4.5)"/><path class="a7fd574f-3f3d-40e6-aba6-8b7cd40cd4f8" d="M1139,104.7a193.4,193.4,0,0,1-.8-53.8l10.5-5.8a187.3,187.3,0,0,0,1.5,53.5Z" transform="translate(0 4.5)"/><path class="a7fd574f-3f3d-40e6-aba6-8b7cd40cd4f8" d="M1206.8,55a170.8,170.8,0,0,1-2.7-40.5l5.2-2.9a170.1,170.1,0,0,0,3,40.4Z" transform="translate(0 4.5)"/><path class="ada00ecd-d543-4880-a292-a7bc01e3b895" d="M2629.2,724.6c17.5-40.6,15.6-84-4.8-120.7l52.2-11.8c28.1,40,35.7,87.4,21.9,131.7Z" transform="translate(0 4.5)"/><path d="M2673,670.7c-14.9,1.2-26.5-5.1-27.3-14s8.7-17.5,22.3-19.6,27.4,4.1,29.4,13.8S2687.9,669.5,2673,670.7Z" transform="translate(0 4.5)"/><path d="M2629.2,724.6a149.4,149.4,0,0,0,8.8-27.3l66.5-3.3a140.7,140.7,0,0,1-6,29.8Z" transform="translate(0 4.5)"/><path d="M2625.8,606.6c-.4-.9-.9-1.8-1.4-2.7l52.2-11.8c.7,1,1.3,2,2,2.9Z" transform="translate(0 4.5)"/><path class="a7fd574f-3f3d-40e6-aba6-8b7cd40cd4f8" d="M2640.9,633.6a133.6,133.6,0,0,0-10.2-26l6.6-1.4a138.7,138.7,0,0,1,10.8,26.3Z" transform="translate(0 4.5)"/><path class="a7fd574f-3f3d-40e6-aba6-8b7cd40cd4f8" d="M2683.5,620.4a166.9,166.9,0,0,0-11.4-21.7l3.3-.7a170.4,170.4,0,0,1,11.7,21.8Z" transform="translate(0 4.5)"/><path class="ada00ecd-d543-4880-a292-a7bc01e3b895" d="M1511.9,1129.8c-25.6-96.9-4.5-185.5,57.2-249.9l202.8,49c-99.3,67.6-149.9,164.2-144.7,270.9Z" transform="translate(0 4.5)"/><path d="M1576.6,1044.5c-33.2-13.8-58.3-40.5-53.2-58.6s43.8-21.8,83.5-9.4,59.9,37,48.3,56.6S1609.9,1058.3,1576.6,1044.5Z" transform="translate(0 4.5)"/><path d="M1511.9,1129.8a324,324,0,0,1-10.2-63l130.2,63.8a293.9,293.9,0,0,0-4.7,69.2Z" transform="translate(0 4.5)"/><path d="M1564.7,884.6c1.4-1.6,2.9-3.1,4.4-4.7l202.8,49-7.1,4.9Z" transform="translate(0 4.5)"/><path class="a7fd574f-3f3d-40e6-aba6-8b7cd40cd4f8" d="M1541.5,939.7a255,255,0,0,1,34.8-48.2l24.5,6.2a257.8,257.8,0,0,0-37.6,48.5Z" transform="translate(0 4.5)"/><path class="a7fd574f-3f3d-40e6-aba6-8b7cd40cd4f8" d="M1687.9,969a350.5,350.5,0,0,1,42.9-39l12.3,3.1a355.3,355.3,0,0,0-44,39.1Z" transform="translate(0 4.5)"/><path class="ada00ecd-d543-4880-a292-a7bc01e3b895" d="M2658.1,859.8c54.2,36,86.7,91.1,91,152.8l73.9-27.4c2.5-72-26.1-136.6-78.7-180.2Z" transform="translate(0 4.5)"/><path d="M2755.5,891.1c-19.4,10.5-28.7,27.7-22.5,39.2s24.8,14.7,43.3,6.2,30.5-27,25.2-40.6S2774.8,880.6,2755.5,891.1Z" transform="translate(0 4.5)"/><path d="M2658.1,859.8a214,214,0,0,1,32.8,26.6l84.7-49.5a219.3,219.3,0,0,0-31.3-31.9Z" transform="translate(0 4.5)"/><path d="M2748.8,1008.2l.3,4.4,73.9-27.4c.1-1.8.1-3.5.1-5.2Z" transform="translate(0 4.5)"/><path class="a7fd574f-3f3d-40e6-aba6-8b7cd40cd4f8" d="M2745.7,962.6a194.3,194.3,0,0,1,8.2,40.4l9.3-3.6a202.6,202.6,0,0,0-7.8-41.2Z" transform="translate(0 4.5)"/><path class="a7fd574f-3f3d-40e6-aba6-8b7cd40cd4f8" d="M2808.9,944.7a223.9,223.9,0,0,1,3.2,35.9l4.7-1.7a240.2,240.2,0,0,0-3.1-36.3Z" transform="translate(0 4.5)"/><path class="ada00ecd-d543-4880-a292-a7bc01e3b895" d="M1378.1,825.6c70.3-35.1,147.5-36,214.6-3.4q8-46.8,15.7-93.8c-73.7-45.8-158.5-54.8-235.8-25.9Q1375.5,764.2,1378.1,825.6Z" transform="translate(0 4.5)"/><path d="M1469.4,742.5c-.6,26.6,11.7,46.7,27.5,47.1s30.3-17.2,32.5-41.5-9.9-48.2-27.2-50.8S1470.1,716.1,1469.4,742.5Z" transform="translate(0 4.5)"/><path d="M1378.1,825.6a259.1,259.1,0,0,1,47.6-18.3c-.3-39.5-.6-78.9-.8-118.4a261.5,261.5,0,0,0-52.3,13.6Q1375.5,764.2,1378.1,825.6Z" transform="translate(0 4.5)"/><path d="M1587.9,819.9l4.8,2.3q8-46.8,15.7-93.8l-5.3-3.2C1598,756.8,1592.9,788.3,1587.9,819.9Z" transform="translate(0 4.5)"/><path class="a7fd574f-3f3d-40e6-aba6-8b7cd40cd4f8" d="M1538.4,795.8a237.4,237.4,0,0,1,47.2,15.6l1.8-11.8a239.8,239.8,0,0,0-47.8-16.6Z" transform="translate(0 4.5)"/><path class="a7fd574f-3f3d-40e6-aba6-8b7cd40cd4f8" d="M1557.6,718.9a275.8,275.8,0,0,1,39.6,18.2l.9-5.9a270.1,270.1,0,0,0-39.8-18.6C1558,714.7,1557.8,716.8,1557.6,718.9Z" transform="translate(0 4.5)"/><path class="ada00ecd-d543-4880-a292-a7bc01e3b895" d="M2941.7,423c-38.5,53.4-95.4,84.1-157.9,86.2l24.9,75.6c72.6,5.3,139-21.2,185-72.7Z" transform="translate(0 4.5)"/><path d="M2906.3,520.2c-9.8-20-26.8-30-38.7-24.2s-15.8,24.5-7.9,43.4,26.1,31.9,40,27.1S2916.2,540.1,2906.3,520.2Z" transform="translate(0 4.5)"/><path d="M2941.7,423a223.5,223.5,0,0,1-28.2,32.1l46.8,87.5a223.4,223.4,0,0,0,33.4-30.5Z" transform="translate(0 4.5)"/><path d="M2788.3,509l-4.5.2,24.9,75.6c1.8.1,3.5.3,5.3.3Z" transform="translate(0 4.5)"/><path class="a7fd574f-3f3d-40e6-aba6-8b7cd40cd4f8" d="M2834.5,507.6a208.5,208.5,0,0,1-41.2,6.8l3.3,9.5a208.8,208.8,0,0,0,41.9-6.3C2837.2,514.2,2835.8,510.9,2834.5,507.6Z" transform="translate(0 4.5)"/><path class="a7fd574f-3f3d-40e6-aba6-8b7cd40cd4f8" d="M2850.2,572.1a231.9,231.9,0,0,1-36.5,1.9c.6,1.6,1.1,3.2,1.6,4.8a248.6,248.6,0,0,0,36.8-1.8Z" transform="translate(0 4.5)"/><path class="ada00ecd-d543-4880-a292-a7bc01e3b895" d="M3004.9,100.9c-6.6,97.9-53.8,173.4-131,213.7L2701.3,205.8C2814.4,174.2,2891.5,100.6,2920,.1Z" transform="translate(0 4.5)"/><path d="M2918.3,159.8c26.5,23.2,41.4,55.8,31,70.9s-47.3,6.5-80.3-17.4-43.9-53-27-67.5S2891.8,136.5,2918.3,159.8Z" transform="translate(0 4.5)"/><path d="M3004.9,100.9a314.5,314.5,0,0,1-10.2,61.6q-50.4-49.8-100.6-99.8A286.4,286.4,0,0,0,2920,.1Z" transform="translate(0 4.5)"/><path d="M2879.4,311.6l-5.5,3L2701.3,205.8l8.1-2.4Z" transform="translate(0 4.5)"/><path class="a7fd574f-3f3d-40e6-aba6-8b7cd40cd4f8" d="M2918,267.8a248,248,0,0,1-47.2,33.8L2850,288.2a254.1,254.1,0,0,0,50-33.2Z" transform="translate(0 4.5)"/><path class="a7fd574f-3f3d-40e6-aba6-8b7cd40cd4f8" d="M2791.6,194.9a358.4,358.4,0,0,1-51.9,22.7l-10.4-6.7a356.1,356.1,0,0,0,53-22.5Z" transform="translate(0 4.5)"/><path class="ada00ecd-d543-4880-a292-a7bc01e3b895" d="M1175.7,772.4c-78.9-43.5-123.5-112.1-127-192l157.6-101.5c-17.7,106.5,13.7,199.2,86.3,261.9Z" transform="translate(0 4.5)"/><path d="M1160.3,677.5c-29.6,13-62.5,12.8-71-1.8s12.9-41.9,45.6-60.1,61.2-15.9,66.7,3.8S1190,664.4,1160.3,677.5Z" transform="translate(0 4.5)"/><path d="M1175.7,772.4a283.3,283.3,0,0,1-47.3-32.4l122.1-45.1a260.5,260.5,0,0,0,42.1,45.9Z" transform="translate(0 4.5)"/><path d="M1049,586.1l-.3-5.7,157.6-101.5-1.2,7.7Z" transform="translate(0 4.5)"/><path class="a7fd574f-3f3d-40e6-aba6-8b7cd40cd4f8" d="M1070.5,635.3a222.7,222.7,0,0,1-9.8-52.4l19.2-12.2a233.8,233.8,0,0,0,8.2,54.6Z" transform="translate(0 4.5)"/><path class="a7fd574f-3f3d-40e6-aba6-8b7cd40cd4f8" d="M1180.3,558.3a325.3,325.3,0,0,1,1.2-52l9.6-6.1a326.8,326.8,0,0,0-1.9,52.9Z" transform="translate(0 4.5)"/><path class="ada00ecd-d543-4880-a292-a7bc01e3b895" d="M2424.7,1039.5c-38-30-81.2-37.8-121.6-22.9q-8.8,49.6-17.5,99.2c49.1-30.9,101.6-34.7,147.8-11.8Z" transform="translate(0 4.5)"/><path d="M2374.5,1051.7c.3-17.4-6.7-33.7-15.7-34.9s-18.1,15.2-20.3,35.2,4.9,33.6,15.8,32.2S2374.2,1069.1,2374.5,1051.7Z" transform="translate(0 4.5)"/><path d="M2424.7,1039.5a160.1,160.1,0,0,0-25.9-16.7c1,23.3,2.1,46.6,3.1,70a141,141,0,0,1,31.5,11.2Z" transform="translate(0 4.5)"/><path d="M2306,1015.5l-2.9,1.1q-8.8,49.6-17.5,99.2l3.6-2.1Z" transform="translate(0 4.5)"/><path class="a7fd574f-3f3d-40e6-aba6-8b7cd40cd4f8" d="M2334.8,1015.9a121.1,121.1,0,0,0-28,6.1c-.7,4-1.3,8.1-2,12.1a124.8,124.8,0,0,1,28.7-7.3C2334,1023.1,2334.4,1019.5,2334.8,1015.9Z" transform="translate(0 4.5)"/><path class="a7fd574f-3f3d-40e6-aba6-8b7cd40cd4f8" d="M2319.6,1086.4a165.2,165.2,0,0,0-25.6,11.5c-.3,2-.6,4-1,6a186.2,186.2,0,0,1,25.8-12C2319.1,1090.1,2319.3,1088.2,2319.6,1086.4Z" transform="translate(0 4.5)"/><path d="M2865.7,710a54.2,54.2,0,0,1,49.3-58.7c29.8-2.6,54.1,25.5,54.1,25.5l-65.6,84.1S2868.3,739.8,2865.7,710Z" transform="translate(0 4.5)"/><path class="a7fd574f-3f3d-40e6-aba6-8b7cd40cd4f8" d="M2895.4,732.3l-29.8-23.4a4.1,4.1,0,0,1,.1,1.1l.3,2.6,27.7,21.8Z" transform="translate(0 4.5)"/><path class="a7fd574f-3f3d-40e6-aba6-8b7cd40cd4f8" d="M2942.6,672.2l-26.8-21h-.8l-2.9.3,28.8,22.7Z" transform="translate(0 4.5)"/><path class="a7fd574f-3f3d-40e6-aba6-8b7cd40cd4f8" d="M2899.1,715.6l-31.6-24.9c-.5,1.9-1,3.8-1.3,5.7l29.7,23.3Z" transform="translate(0 4.5)"/><path class="a7fd574f-3f3d-40e6-aba6-8b7cd40cd4f8" d="M2920.9,677.6l-26.1-20.5c-1.6.9-3.3,1.8-4.8,2.8l27.6,21.8Z" transform="translate(0 4.5)"/><path class="a7fd574f-3f3d-40e6-aba6-8b7cd40cd4f8" d="M2910.8,693.9l-31.5-24.8a61.4,61.4,0,0,0-5.4,7.2l31.3,24.7Z" transform="translate(0 4.5)"/><circle class="a7fd574f-3f3d-40e6-aba6-8b7cd40cd4f8" cx="2930" cy="714.2" r="54.2" transform="translate(2049.2 3603) rotate(-86.7)"/><circle class="a7fd574f-3f3d-40e6-aba6-8b7cd40cd4f8" cx="2930" cy="714.2" r="47" transform="translate(-29.3 1299.7) rotate(-24.8)"/><path d="M2915.3,709.8a20.1,20.1,0,0,0,6.1,3.3l1.6,18a32,32,0,0,1-5.8-1.3l-1.3,4.9a31,31,0,0,0,7.6,1.5l.8,9.9,4.6-.4-.8-9.5h1l2.6-.4.9,9.6,4.6-.4-1-10.7a13.6,13.6,0,0,0,3.4-2.3,10.4,10.4,0,0,0,3.4-9,12.3,12.3,0,0,0-3.6-8.2,17.1,17.1,0,0,0-5.2-3.2l-1.7-19.4,2,.2a31.1,31.1,0,0,1,6.5,1.4l-.4-5.3a25.5,25.5,0,0,0-8.5-1.2l-.7-8.4-4.6.4.7,8.2h0l-3.6.5-.8-8.3-4.6.4.9,9.4a15.3,15.3,0,0,0-3.9,2.5,11.5,11.5,0,0,0-3.6,10.1A11.1,11.1,0,0,0,2915.3,709.8Zm13.5,21.5h-1.1l-1.5-16.7,3.8,1.1,1.3,15.2Zm7.4-11.8a7.2,7.2,0,0,1,1.2,3.9,6.2,6.2,0,0,1-1.7,5.1l-.9-10.4A6.2,6.2,0,0,1,2936.2,719.5Zm-8.5-27.2h.2l1.6,17.7-3.8-1-1.4-16.1A15.9,15.9,0,0,1,2927.7,692.3Zm-8.1,2.8c.1-.1.2-.1.2-.2l1.1,12a8.2,8.2,0,0,1-2.2-1.8,7.6,7.6,0,0,1-1.3-4A6.7,6.7,0,0,1,2919.6,695.1Z" transform="translate(0 4.5)"/><path d="M1843,1136.5c-27.9,2.5-51.7-9.3-53.3-26.4-.4-4.3-1.5-16.6-1.5-16.6l100.6-11.7s1.1,12.2,1.8,19.1C1892.1,1118,1870.8,1134,1843,1136.5Z" transform="translate(0 4.5)"/><path class="a7fd574f-3f3d-40e6-aba6-8b7cd40cd4f8" d="M1883.7,1118.9l-3.3-36.1-4.6.6,3.6,39.5A41.5,41.5,0,0,0,1883.7,1118.9Z" transform="translate(0 4.5)"/><path class="a7fd574f-3f3d-40e6-aba6-8b7cd40cd4f8" d="M1804.7,1129.7l-3.5-37.7-4.5.5,3.1,34A34.5,34.5,0,0,0,1804.7,1129.7Z" transform="translate(0 4.5)"/><path class="a7fd574f-3f3d-40e6-aba6-8b7cd40cd4f8" d="M1821.9,1135.6l-4.1-45.5-7.8.9,3.9,42.6A52,52,0,0,0,1821.9,1135.6Z" transform="translate(0 4.5)"/><path class="a7fd574f-3f3d-40e6-aba6-8b7cd40cd4f8" d="M1859.6,1133.2a54,54,0,0,0,6.7-2.5l-4.2-45.8-7.7.9,4.3,47.5Z" transform="translate(0 4.5)"/><path class="a7fd574f-3f3d-40e6-aba6-8b7cd40cd4f8" d="M1843,1136.5l1.7-.2-4.4-48.8-10.6,1.2,4.4,48.1A66.8,66.8,0,0,0,1843,1136.5Z" transform="translate(0 4.5)"/><ellipse class="a7fd574f-3f3d-40e6-aba6-8b7cd40cd4f8" cx="1838.6" cy="1088.9" rx="50.6" ry="31.2" transform="translate(-91.1 175.7) rotate(-5.2)"/><path class="a7fd574f-3f3d-40e6-aba6-8b7cd40cd4f8" d="M1840.2,1110.4c-23.5,2.2-43.6-6.6-44.8-19.7s17-25.4,40.5-27.5,43.7,6.7,44.9,19.7S1863.8,1108.3,1840.2,1110.4Z" transform="translate(0 4.5)"/><path d="M1839,1094.5a13.4,13.4,0,0,0,3.3-4.2l16.8-1.5a14.9,14.9,0,0,1-1.3,3.9l4.5.7a15.4,15.4,0,0,0,1.6-5l9.2-.9-.3-3-8.8.8v-.7l-.3-1.7,8.9-.8-.3-3.1-9.9.9a14.5,14.5,0,0,0-2.1-2.2c-2.2-1.6-5-2.2-8.4-1.9a14.6,14.6,0,0,0-7.6,2.5,12.3,12.3,0,0,0-3.1,3.6l-18.1,1.6a5.9,5.9,0,0,1,.2-1.3,20.6,20.6,0,0,1,1.4-4.4l-4.9.5a11.9,11.9,0,0,0-1.4,5.6l-7.8.7.3,3.1,7.6-.7h0a15,15,0,0,0,.4,2.4l-7.8.7.3,3,8.8-.8a9.2,9.2,0,0,0,2.3,2.5c2.4,1.8,5.5,2.5,9.4,2.2A13,13,0,0,0,1839,1094.5Zm20.4-9.5v.7l-15.6,1.4a14.5,14.5,0,0,1,1.1-2.5l14.1-1.3A8.5,8.5,0,0,1,1859.4,1085Zm-10.9-4.6a11.7,11.7,0,0,1,3.7-1,7.7,7.7,0,0,1,4.7,1l-9.7.9A5.1,5.1,0,0,1,1848.5,1080.4Zm-25.5,6.3h0l16.6-1.5c-.4.9-.7,1.8-1.1,2.5l-15,1.4A13.2,13.2,0,0,1,1823,1086.7Zm2.5,5.3h-.2l11.2-1a6.5,6.5,0,0,1-1.8,1.5,10.3,10.3,0,0,1-3.7,1A7.5,7.5,0,0,1,1825.5,1092Z" transform="translate(0 4.5)"/><path d="M1307.3,477.9c-20.1-19.5-26.6-45.3-14.7-57.7l11.6-11.9,74.4,68.8-13.3,13.7C1353.3,503.1,1327.3,497.3,1307.3,477.9Z" transform="translate(0 4.5)"/><path class="a7fd574f-3f3d-40e6-aba6-8b7cd40cd4f8" d="M1347.2,497.3l25.2-26-3.4-3.1-27.7,28.5Z" transform="translate(0 4.5)"/><path class="a7fd574f-3f3d-40e6-aba6-8b7cd40cd4f8" d="M1287.5,444.4l26.4-27.2-3.4-3.1-23.8,24.5A42.4,42.4,0,0,0,1287.5,444.4Z" transform="translate(0 4.5)"/><path class="a7fd574f-3f3d-40e6-aba6-8b7cd40cd4f8" d="M1294.2,461.3l31.9-32.8-5.7-5.3L1290.5,454A62.6,62.6,0,0,0,1294.2,461.3Z" transform="translate(0 4.5)"/><path class="a7fd574f-3f3d-40e6-aba6-8b7cd40cd4f8" d="M1320.6,488.3a54.5,54.5,0,0,0,6.2,3.5l32-33-5.7-5.3-33.2,34.2Z" transform="translate(0 4.5)"/><path class="a7fd574f-3f3d-40e6-aba6-8b7cd40cd4f8" d="M1307.3,477.9l1.2,1.2,34.2-35.2-7.8-7.2-33.7,34.7C1303.1,473.6,1305.1,475.8,1307.3,477.9Z" transform="translate(0 4.5)"/><ellipse class="a7fd574f-3f3d-40e6-aba6-8b7cd40cd4f8" cx="1340.6" cy="443.6" rx="31.2" ry="50.6" transform="translate(88.4 1100.8) rotate(-45.8)"/><ellipse class="a7fd574f-3f3d-40e6-aba6-8b7cd40cd4f8" cx="1341.8" cy="441.8" rx="23.7" ry="42.8" transform="translate(90.1 1101.1) rotate(-45.8)"/><path d="M1336.6,447.5a13.3,13.3,0,0,0,5.2-.2l12.2,11.8a19.8,19.8,0,0,1-3.9,1.5l2.5,3.9a17.1,17.1,0,0,0,4.8-2.1l6.7,6.4,2.1-2.1-6.4-6.2.5-.5a7.6,7.6,0,0,0,1.1-1.4l6.5,6.3,2.1-2.2-7.2-6.9a8,8,0,0,0,.3-3.1c-.1-2.7-1.5-5.2-3.9-7.6a15.1,15.1,0,0,0-7-4.1,10.5,10.5,0,0,0-4.7-.1l-13-12.6,1.2-.8a19.4,19.4,0,0,1,4.2-1.7l-3.6-3.5a13.4,13.4,0,0,0-5.1,2.7l-5.6-5.4-2.2,2.1,5.5,5.4h0a9,9,0,0,0-1.5,1.9l-5.7-5.5-2.1,2.2,6.4,6.1a7.8,7.8,0,0,0-.4,3.4c.1,3,1.6,5.8,4.4,8.5A13.3,13.3,0,0,0,1336.6,447.5Zm20.4,9.2-.5.6-11.3-11,2.7-.8,10.2,9.9A4.5,4.5,0,0,1,1357,456.7Zm-3.5-11.2a10.5,10.5,0,0,1,3.1,2.2,7.4,7.4,0,0,1,2.3,4.2l-7-6.8ZM1332,430.3a.1.1,0,0,0,.1-.1l12,11.6-2.7.8-10.8-10.5Zm-2.4,5.3v-.2l8.1,7.8a8.5,8.5,0,0,1-2.3-.3,9.7,9.7,0,0,1-3.2-2.2A7.9,7.9,0,0,1,1329.6,435.6Z" transform="translate(0 4.5)"/><path d="M1256.8,925.5a50.6,50.6,0,0,1-70.9,9.6c-22.3-16.9-21.4-51.7-21.4-51.7l98.2-16.8S1273.8,903.2,1256.8,925.5Z" transform="translate(0 4.5)"/><path class="a7fd574f-3f3d-40e6-aba6-8b7cd40cd4f8" d="M1250.4,891.4l5.8,34.9.6-.8,1.5-2-5.5-32.5Z" transform="translate(0 4.5)"/><path class="a7fd574f-3f3d-40e6-aba6-8b7cd40cd4f8" d="M1180,903.3l5.2,31.3.7.5,2.2,1.6-5.7-33.8Z" transform="translate(0 4.5)"/><path class="a7fd574f-3f3d-40e6-aba6-8b7cd40cd4f8" d="M1237.3,900.6l6.2,37.1c1.5-1,3-2,4.5-3.2l-5.9-34.7Z" transform="translate(0 4.5)"/><path class="a7fd574f-3f3d-40e6-aba6-8b7cd40cd4f8" d="M1198.3,913.2l5.2,30.5a31,31,0,0,0,5.1,1.1l-5.4-32.4Z" transform="translate(0 4.5)"/><path class="a7fd574f-3f3d-40e6-aba6-8b7cd40cd4f8" d="M1215.5,908.2l6.2,37a49.7,49.7,0,0,0,8.4-1.6l-6.2-36.8Z" transform="translate(0 4.5)"/><circle class="a7fd574f-3f3d-40e6-aba6-8b7cd40cd4f8" cx="1215.1" cy="882.1" r="50.6" transform="translate(-107.5 175.8) rotate(-7.7)"/><circle class="a7fd574f-3f3d-40e6-aba6-8b7cd40cd4f8" cx="1215.1" cy="882.1" r="43.9" transform="translate(276.3 2058.6) rotate(-87.3)"/><path d="M1222.4,894.4a19.2,19.2,0,0,0-2.1-6.1l10.2-13.5a31.3,31.3,0,0,1,3.2,4.6l4-2.6a30.1,30.1,0,0,0-4.3-5.8l5.6-7.3-3.4-2.6-5.4,7-.7-.6-2.1-1.4,5.5-7.1-3.5-2.6-6,7.9a17.3,17.3,0,0,0-3.8-.5,9.7,9.7,0,0,0-8,4.1,11.5,11.5,0,0,0-2.7,7.9,16,16,0,0,0,1.6,5.5l-11,14.4-1.3-1.3a39.8,39.8,0,0,1-3.6-5.1l-3,4a22.2,22.2,0,0,0,5.1,6.1l-4.8,6.3,3.4,2.6,4.7-6.1h0a23.1,23.1,0,0,0,2.8,1.9l-4.7,6.3,3.4,2.6,5.4-7.1a12.3,12.3,0,0,0,4.2.7c3.6,0,6.5-1.6,8.9-4.7A10.9,10.9,0,0,0,1222.4,894.4Zm4.2-23.3.8.7-9.5,12.5c-.7-1.2-1.4-2.2-1.9-3.2l8.6-11.3Zm-12.5,3.5a7.7,7.7,0,0,1,1.6-3.5,5.8,5.8,0,0,1,4.4-2.4l-5.9,7.8A4.1,4.1,0,0,1,1214.1,874.6Zm-11.2,24.1h-.2l10.1-13.2,1.9,3.1-9.1,12A14.1,14.1,0,0,1,1202.9,898.7Zm7.3,3.2h-.2l6.8-9a6.6,6.6,0,0,1,.3,2.7,7,7,0,0,1-1.5,3.5A6.4,6.4,0,0,1,1210.2,901.9Z" transform="translate(0 4.5)"/><path d="M2553.7,913.5c23.6-2.2,43.7,7.8,45,22.3.4,3.6,1.3,14,1.3,14l-85,9.8s-1-10.2-1.5-16C2512.2,929.1,2530.2,915.6,2553.7,913.5Z" transform="translate(0 4.5)"/><path class="a7fd574f-3f3d-40e6-aba6-8b7cd40cd4f8" d="M2519.3,928.4l2.8,30.4,3.9-.4-3.1-33.5A39.8,39.8,0,0,0,2519.3,928.4Z" transform="translate(0 4.5)"/><path class="a7fd574f-3f3d-40e6-aba6-8b7cd40cd4f8" d="M2586.1,919.2l2.9,31.9,3.9-.5-2.6-28.7A30.1,30.1,0,0,0,2586.1,919.2Z" transform="translate(0 4.5)"/><path class="a7fd574f-3f3d-40e6-aba6-8b7cd40cd4f8" d="M2571.5,914.2l3.5,38.5,6.6-.8-3.3-36A48.3,48.3,0,0,0,2571.5,914.2Z" transform="translate(0 4.5)"/><path class="a7fd574f-3f3d-40e6-aba6-8b7cd40cd4f8" d="M2539.7,916.2a40.8,40.8,0,0,0-5.6,2.1l3.5,38.7,6.5-.7-3.6-40.1Z" transform="translate(0 4.5)"/><path class="a7fd574f-3f3d-40e6-aba6-8b7cd40cd4f8" d="M2553.7,913.5h-1.5l3.8,41.3,8.9-1-3.7-40.7A48,48,0,0,0,2553.7,913.5Z" transform="translate(0 4.5)"/><path class="a7fd574f-3f3d-40e6-aba6-8b7cd40cd4f8" d="M2555,927.5c23.5-2.2,43.7,7.8,45,22.3s-16.7,28-40.2,30.1-43.7-7.9-45-22.3S2531.5,929.6,2555,927.5Z" transform="translate(0 4.5)"/><path class="a7fd574f-3f3d-40e6-aba6-8b7cd40cd4f8" d="M2556,935.5c20-1.8,36.9,5.6,37.9,16.7s-14.3,21.4-34.2,23.2-36.9-5.7-37.9-16.7S2536.1,937.3,2556,935.5Z" transform="translate(0 4.5)"/><path d="M2557.1,949a11.6,11.6,0,0,0-2.8,3.5l-14.2,1.3a14.2,14.2,0,0,1,1.1-3.3l-3.8-.6a12.8,12.8,0,0,0-1.3,4.2l-7.8.7.2,2.6,7.5-.7v.6a4,4,0,0,0,.3,1.5l-7.6.7.2,2.5,8.4-.7a7.7,7.7,0,0,0,1.8,1.8c1.8,1.4,4.2,1.9,7.1,1.7a13.2,13.2,0,0,0,6.5-2.2,11.2,11.2,0,0,0,2.6-3l15.3-1.4c-.1.4-.1.8-.2,1.2a19,19,0,0,1-1.2,3.6l4.2-.3a13.1,13.1,0,0,0,1.1-4.8l6.6-.6-.3-2.6-6.4.6h0a11.8,11.8,0,0,0-.4-2l6.6-.6-.2-2.6-7.4.7a10,10,0,0,0-2-2.1,11,11,0,0,0-7.9-1.9A11.6,11.6,0,0,0,2557.1,949Zm-17.2,8c0-.2-.1-.4-.1-.6l13.3-1.2-1,2.1-11.9,1.1A3.2,3.2,0,0,1,2539.9,957Zm9.1,3.9a7.7,7.7,0,0,1-3.1.8,6.4,6.4,0,0,1-4-.9l8.3-.7Zm21.6-5.4h0l-14,1.3a22,22,0,0,1,.9-2.1l12.7-1.2A10.6,10.6,0,0,1,2570.6,955.5Zm-2.1-4.5.2.2-9.5.8a7.9,7.9,0,0,1,1.5-1.2,6.7,6.7,0,0,1,3.1-.9A6.4,6.4,0,0,1,2568.5,951Z" transform="translate(0 4.5)"/></svg>