<svg xmlns="http://www.w3.org/2000/svg" viewBox="0 0 101.63 12.59" data-arp-injected="true"><defs><style>.cls-1{fill:#000;}</style></defs><g id="Layer_2" data-name="Layer 2"><g id="Layer_1-2" data-name="Layer 1"><path class="cls-1" d="M11,6.16a1.11,1.11,0,0,1-.2.87L6.44,12.1a1.2,1.2,0,0,1-1,.49l-.29,0A1.08,1.08,0,0,1,4.44,12L.39,6.85A1.2,1.2,0,0,1,.31,5.16L4.63.39A1.2,1.2,0,1,1,6.4,2L2.77,6,5.5,9.37,7,7.68H5.1V5.27H9.32a1.19,1.19,0,0,1,1.17.12A1.22,1.22,0,0,1,11,6.16ZM62.13,7a4.12,4.12,0,0,0-1.66-3A4,4,0,0,0,58,3.24H55.23a1.13,1.13,0,0,0-.38,0,1,1,0,0,0-.82.93,1,1,0,0,0,.72,1.1,1.54,1.54,0,0,0,.48,0H58a2.74,2.74,0,0,1,.51,0A1.91,1.91,0,0,1,60,7.47,1.76,1.76,0,0,1,58.14,9.1H55a3.89,3.89,0,0,1-1.7-.36l-.14-.06a5,5,0,0,1-1.35-.8l-.09-.08h0l-.07,0L51,7.41l.25.73a.3.3,0,0,1,0,.13v.09a4.09,4.09,0,0,0,3.9,2.94h3a4.41,4.41,0,0,0,.71,0A4,4,0,0,0,62.13,7Zm-7,1.35h3a1.13,1.13,0,0,0,.38,0,1,1,0,0,0,.74-.92,1.07,1.07,0,0,0-.59-1A1.36,1.36,0,0,0,58,6.23H55.11a2,2,0,0,1-1.9-1.84A1.94,1.94,0,0,1,53.74,3,1.83,1.83,0,0,1,55,2.46h3.1a4.62,4.62,0,0,1,3.1,1.21.53.53,0,0,0,.11.09l.08.06.55.55V3.6a.55.55,0,0,0-.07-.33A4,4,0,0,0,58.14.33H55a2.2,2.2,0,0,0-.59,0,4,4,0,0,0-3.32,4.36A4,4,0,0,0,55.11,8.36ZM16.7,7.42a.12.12,0,0,1,0-.15,2.53,2.53,0,0,0,.86-2.22c0-1.86-.82-2.73-2.84-2.73H12.28a.35.35,0,0,0-.36.36V9.92a.34.34,0,0,0,.36.35h1.27a.34.34,0,0,0,.35-.35V8.12a.34.34,0,0,1,.35-.35h.46a.12.12,0,0,1,.09.06L16,10.11a.27.27,0,0,0,.26.16h1.29a.41.41,0,0,0,.38-.61ZM14.83,4.28c.55,0,.82.06.82.77s-.27.77-.82.77h-.58a.34.34,0,0,1-.35-.35V4.63a.34.34,0,0,1,.35-.35Zm9.33.79c0-1.43-.22-2.95-2.78-2.95s-2.78,1.52-2.78,3V9.88c0,.25.13.39.34.39h1.27a.3.3,0,0,0,.34-.34v-1a.31.31,0,0,1,.34-.34h1a.3.3,0,0,1,.34.34v1a.31.31,0,0,0,.34.34h1.27c.23,0,.34-.14.34-.39ZM22.21,6.3a.31.31,0,0,1-.34.35h-1a.32.32,0,0,1-.34-.34V5.07c0-.55.08-.82.83-.82s.83.27.83.82Zm3.38-4a.32.32,0,0,0-.34.36V9.93a.31.31,0,0,0,.34.34h1.27a.31.31,0,0,0,.34-.34V8.11a.3.3,0,0,1,.34-.34h.54c2,0,2.84-.86,2.84-2.72s-.82-2.73-2.84-2.73Zm1.95,3.5a.31.31,0,0,1-.34-.34V4.62a.3.3,0,0,1,.34-.34h.61c.55,0,.82.06.82.77s-.27.77-.82.77ZM32,2.32a.3.3,0,0,0-.34.34V9.93a.31.31,0,0,0,.34.34h1.27a.31.31,0,0,0,.34-.34V8.13a.31.31,0,0,1,.34-.34H35a.3.3,0,0,1,.34.34v1.8a.32.32,0,0,0,.34.34H37a.31.31,0,0,0,.34-.34V2.66A.3.3,0,0,0,37,2.32H35.69a.32.32,0,0,0-.34.34V5.5a.3.3,0,0,1-.34.34H33.92a.31.31,0,0,1-.34-.34V2.66a.31.31,0,0,0-.34-.34Zm6.81,0a.31.31,0,0,0-.34.34V9.93a.32.32,0,0,0,.34.34H40a.31.31,0,0,0,.34-.34V2.66A.3.3,0,0,0,40,2.32Zm2.61,5.39a2.53,2.53,0,0,0,2.85,2.76c2.42,0,2.8-1.62,2.84-2.48a.3.3,0,0,0-.25-.33l-1.28-.29a.35.35,0,0,0-.44.33c-.07.53-.24.82-.87.82-.84,0-.89-.53-.89-1.41V5.48c0-.88,0-1.41.89-1.41a.77.77,0,0,1,.88.8.38.38,0,0,0,.45.35l1.26-.29a.29.29,0,0,0,.25-.31c0-.88-.42-2.5-2.84-2.5a2.53,2.53,0,0,0-2.85,2.76ZM69,1.85H67.74a.3.3,0,0,0-.34.34V6.64c0,.87-.06,1.4-.9,1.4s-.89-.53-.89-1.4V2.19a.3.3,0,0,0-.34-.34H64a.31.31,0,0,0-.34.34V7.24A2.53,2.53,0,0,0,66.5,10a2.53,2.53,0,0,0,2.85-2.76V2.19A.3.3,0,0,0,69,1.85ZM76.4,9.18a.4.4,0,0,1-.37.61H74.74a.29.29,0,0,1-.27-.16L73.29,7.35a.11.11,0,0,0-.09-.06h-.45a.34.34,0,0,0-.35.36V9.44a.34.34,0,0,1-.35.35H70.77a.34.34,0,0,1-.35-.35V2.2a.34.34,0,0,1,.35-.35h2.49c2,0,2.84.86,2.84,2.72a2.52,2.52,0,0,1-.86,2.22.13.13,0,0,0,0,.15ZM74.15,4.57c0-.7-.28-.77-.82-.77h-.58a.34.34,0,0,0-.35.35V5a.34.34,0,0,0,.35.35h.58C73.87,5.34,74.15,5.27,74.15,4.57Zm8.23-2.72H77.5a.3.3,0,0,0-.34.34V9.45a.31.31,0,0,0,.34.34h1.34a.31.31,0,0,0,.34-.34V7.14a.31.31,0,0,1,.34-.35h1.87a.3.3,0,0,0,.34-.34V5.18a.3.3,0,0,0-.34-.34H79.52a.31.31,0,0,1-.34-.34V4.14a.3.3,0,0,1,.34-.34h2.86a.31.31,0,0,0,.34-.34V2.19A.3.3,0,0,0,82.38,1.85Zm6.36,2.74V9.41c0,.25-.12.38-.34.38H87.13a.31.31,0,0,1-.35-.34v-1a.3.3,0,0,0-.34-.34h-1a.31.31,0,0,0-.34.34v1a.3.3,0,0,1-.34.34H83.52c-.22,0-.34-.13-.34-.38V4.59c0-1.43.22-2.95,2.78-2.95S88.74,3.16,88.74,4.59Zm-2,0c0-.54-.07-.81-.82-.81s-.83.27-.83.81V5.83a.31.31,0,0,0,.34.34h1a.31.31,0,0,0,.34-.35Zm5.77-1a.77.77,0,0,1,.88.8.37.37,0,0,0,.45.35l1.26-.28a.3.3,0,0,0,.25-.32c0-.87-.42-2.5-2.84-2.5A2.52,2.52,0,0,0,89.71,4.4V7.24A2.52,2.52,0,0,0,92.55,10c2.42,0,2.8-1.63,2.84-2.49a.3.3,0,0,0-.25-.33L93.86,6.9a.35.35,0,0,0-.44.33c-.07.52-.24.81-.87.81-.84,0-.89-.53-.89-1.4V5C91.66,4.13,91.71,3.59,92.55,3.59Zm6,.21h2.75a.31.31,0,0,0,.34-.34V2.19a.3.3,0,0,0-.34-.34H96.52a.3.3,0,0,0-.34.34V9.45a.31.31,0,0,0,.34.34h4.77a.3.3,0,0,0,.34-.34V8.18a.3.3,0,0,0-.34-.34H98.54a.31.31,0,0,1-.34-.34V7.14a.31.31,0,0,1,.34-.35h1.76a.3.3,0,0,0,.34-.34V5.18a.3.3,0,0,0-.34-.34H98.54a.31.31,0,0,1-.34-.34V4.14A.3.3,0,0,1,98.54,3.8Z"/></g></g></svg>