<?xml version="1.0" encoding="utf-8"?>
<!-- Generator: Adobe Illustrator 26.0.1, SVG Export Plug-In . SVG Version: 6.00 Build 0)  -->
<svg version="1.1" id="Layer_1" xmlns="http://www.w3.org/2000/svg" xmlns:xlink="http://www.w3.org/1999/xlink" x="0px" y="0px"
	 viewBox="0 0 945 408.6" style="enable-background:new 0 0 945 408.6;" xml:space="preserve">
<style type="text/css">
	.st0{fill-rule:evenodd;clip-rule:evenodd;fill:#FFFFFF;}
</style>
<g>
	<path class="st0" d="M719.8,204.9L945,0L754,135.4L719.8,204.9z"/>
	<path class="st0" d="M945,0L754,135.4l111.3,22.8L945,0L945,0z"/>
	<path class="st0" d="M945,0L638.9,78.4l64.5,35.4L945,0L945,0z"/>
	<path class="st0" d="M754,135.4l-34.2,69.6l-16.4-91.1L945,0L754,135.4z"/>
	<path class="st0" d="M56.9,291c-20.2-7.6-25.3-8.9-25.3-15.2c0-7.6,5.1-10.1,17.7-10.1c10.1,0,22.8,3.8,34.2,10.1
		c1.3-2.5,8.9-22.8,8.9-24c-12.7-7.6-29.1-11.4-43-11.4c-17.7,0-46.8,5.1-46.8,35.4c0,25.3,17.7,32.9,46.8,41.7
		c12.7,3.8,19,7.6,19,13.9c0,7.6-5.1,10.1-17.7,10.1c-15.2,0-27.8-2.5-41.7-10.1c0,1.3-8.9,21.5-8.9,22.8
		c12.7,8.9,30.4,13.9,48.1,13.9c22.8,0,49.3-6.3,49.3-37.9C97.4,306.2,78.4,298.6,56.9,291L56.9,291z M169.5,339
		c-8.9,0-12.7-5.1-12.7-16.4v-49.3c0-1.3,1.3-1.3,1.3-1.3H186v-29.1h-27.8c0,0-1.3,0-1.3-1.3v-46.8c-2.5,2.5-27.8,15.2-29.1,15.2
		v31.6c0,1.3-1.3,1.3-1.3,1.3h-22.8V272h22.8c0,0,1.3,0,1.3,1.3v58.2c0,21.5,12.7,36.7,30.4,36.7c8.9,0,19-2.5,24-7.6
		c0-1.3,3.8-25.3,3.8-29.1C179.6,336.5,175.8,339,169.5,339z M253,240.4c-30.4,0-53.1,26.6-53.1,63.3c0,38,21.5,64.5,53.1,64.5
		c31.6,0,54.4-26.6,54.4-64.5C307.4,266.9,284.6,240.4,253,240.4L253,240.4z M253,339c-15.2,0-22.8-13.9-22.8-35.4
		c0-21.5,7.6-34.2,22.8-34.2s24,13.9,24,34.2C277.1,321.3,269.5,339,253,339z M325.1,242.9v122.7h30.4v-67c0-19,6.3-27.8,21.5-27.8
		c6.3,0,10.1,2.5,13.9,5.1c1.3-2.5,6.3-26.6,7.6-27.8c-2.5-1.3-5.1-6.3-17.7-6.3c-8.9,0-17.7,2.5-24,8.9c0,1.3,0,1.3-1.3,1.3v-1.3
		v-7.6L325.1,242.9L325.1,242.9z M519.9,242.9h-31.6c-2.5,6.3-19,59.5-19,59.5c-3.8,8.9-6.3,20.3-8.9,26.6v1.3c-1.3,0-1.3,0-1.3-1.3
		c-1.3-6.3-5.1-17.7-7.6-26.6c0,0-19-58.2-20.2-59.5h-32.9c1.3,2.5,46.8,122.7,46.8,122.7v1.3c0,0-13.9,39.2-15.2,41.7h29.1
		C459.2,407.4,518.7,245.4,519.9,242.9L519.9,242.9z M702.1,365.6V296c0-38-13.9-55.7-41.8-55.7c-20.2,0-30.4,7.6-38,15.2v1.3
		c-1.3,0-1.3-1.3-1.3-1.3c-8.9-11.4-17.7-15.2-32.9-15.2c-10.1,0-19,3.8-25.3,10.1c0,1.3-1.3,1.3-1.3,1.3c0-1.3-1.3-1.3-1.3-1.3
		v-7.6h-29.1v122.7h29.1v-67c0-21.5,6.3-29.1,21.5-29.1c13.9,0,20.2,7.6,20.2,29.1v67h29.1v-67c0-21.5,6.3-29.1,21.5-29.1
		c13.9,0,20.3,7.6,20.3,29.1v67L702.1,365.6L702.1,365.6z M822.3,365.6v-82.2c0-26.6-17.7-43-48.1-43c-19,0-30.4,3.8-43,11.4
		c0,2.5,10.1,20.2,10.1,21.5c11.4-6.3,19-7.6,32.9-7.6c11.4,0,19,6.3,19,16.4v6.3c0,0,0,1.3-1.3,1.3c-7.6-3.8-13.9-5.1-24-5.1
		c-22.8,0-46.8,10.1-46.8,40.5c0,29.1,21.5,43,43,43c10.1,0,20.2-3.8,26.6-11.4h1.3c1.3,0,1.3,1.3,1.3,1.3v7.6L822.3,365.6
		L822.3,365.6z M793.2,330.2c-3.8,6.3-12.7,12.7-24,12.7c-17.7,0-19-12.7-19-17.7c0-11.4,7.6-17.7,19-17.7c12.7,0,17.7,2.5,22.8,6.3
		h1.3V330.2z M876.7,365.6V242.9h-29.1v122.7H876.7z M862.8,225.2c8.9,0,16.4-8.9,16.4-17.7c0-10.1-7.6-17.7-16.4-17.7
		c-10.1,0-17.7,7.6-17.7,17.7C845.1,216.3,852.7,225.2,862.8,225.2z M933.6,365.6V188.5c-2.5,1.3-27.8,15.2-29.1,15.2v161.9H933.6z"
		/>
</g>
</svg>
